<svg xmlns="http://www.w3.org/2000/svg" width="24" height="24" viewBox="0 0 24 24" fill="none">
  <rect width="24" height="24" fill="black"/>
  <path d="M20.26 7.8C19.8621 7.09637 19.2936 6.50412 18.6068 6.07774C17.9201 5.65135 17.1371 5.40454 16.33 5.36C15.3789 5.40198 14.4757 5.78955 13.79 6.45C13.223 6.96338 12.7134 7.53673 12.27 8.16C11.7902 7.52965 11.2437 6.95297 10.64 6.44C9.84166 5.74447 8.81883 5.3609 7.76 5.36C6.91504 5.4201 6.09921 5.69388 5.38905 6.15566C4.67889 6.61743 4.09769 7.25207 3.7 8C2.59104 9.80504 2.0027 11.8815 2 14C1.99514 14.5519 2.05556 15.1023 2.18 15.64C2.28043 16.1195 2.45952 16.579 2.71 17C3.01185 17.5192 3.4525 17.944 3.98244 18.2267C4.51238 18.5093 5.11064 18.6386 5.71 18.6C6.96 18.6 7.9 18.04 9.01 16.6C9.84164 15.461 10.5807 14.2571 11.22 13L11.85 11.88C11.91 11.79 11.96 11.7 12.01 11.61L12.16 11.86L13.95 14.86C14.5229 15.8602 15.2109 16.7898 16 17.63C16.3317 17.9654 16.73 18.2277 17.1692 18.3999C17.6083 18.5721 18.0787 18.6505 18.55 18.63C19.0418 18.6491 19.5307 18.5468 19.9737 18.3323C20.4166 18.1178 20.8 17.7976 21.09 17.4C21.157 17.3113 21.2172 17.2177 21.27 17.12C21.3912 16.9193 21.4949 16.7085 21.58 16.49L21.7 16.14C21.8342 15.7698 21.9346 15.3883 22 15C22.0185 14.6669 22.0185 14.3331 22 14C22.0424 11.8072 21.4372 9.65056 20.26 7.8ZM10.14 11.36C9.5 12.36 8.57 13.87 7.77 14.97C6.77 16.34 6.26 16.48 5.7 16.48C5.46653 16.4844 5.23624 16.4253 5.03371 16.3091C4.83118 16.1928 4.664 16.0238 4.55 15.82C4.26989 15.2986 4.13519 14.7114 4.16 14.12C4.13763 12.3186 4.61533 10.5462 5.54 9C5.75619 8.59392 6.0691 8.24737 6.45107 7.99098C6.83304 7.73459 7.27229 7.57626 7.73 7.53C8.17442 7.55075 8.60866 7.67008 9.00127 7.87936C9.39388 8.08863 9.73503 8.38261 10 8.74C10.3586 9.15675 10.6925 9.59417 11 10.05L10.14 11.36ZM18.56 16.48C18.08 16.48 17.71 16.29 17.18 15.65C16.3182 14.4836 15.53 13.2646 14.82 12L14.3 11.14C13.94 10.53 13.59 9.98 13.3 9.49C13.3508 9.39642 13.4076 9.30623 13.47 9.22C14.41 7.83 15.24 7.05 16.27 7.05C16.7909 7.09586 17.2919 7.27192 17.727 7.56198C18.1621 7.85204 18.5173 8.24681 18.76 8.71C19.6996 10.3299 20.1737 12.1778 20.13 14.05C20.09 15.36 19.79 16.48 18.56 16.48Z" fill="#ACACAC"/>
</svg>